<svg width="676" height="521" viewBox="0 0 676 521" fill="none" xmlns="http://www.w3.org/2000/svg">
<g opacity="0.9">
<path d="M591.842 422.77L71.8425 407.87C47.6425 407.17 27.7425 388.67 25.3425 364.57L0.24249 116.57C-2.55751 88.4705 19.2425 63.9705 47.4425 63.5705L626.242 55.5705C655.443 55.1705 678.342 80.6705 674.742 109.67L641.042 380.57C637.943 405.17 616.642 423.47 591.842 422.77Z" fill="#EAF9F3"/>
<mask id="mask0_301_4104" style="mask-type:alpha" maskUnits="userSpaceOnUse" x="0" y="55" width="676" height="368">
<path d="M591.842 422.77L71.8425 407.87C47.6425 407.17 27.7425 388.67 25.3425 364.57L0.24249 116.57C-2.55751 88.4705 19.2425 63.9705 47.4425 63.5705L626.242 55.5705C655.443 55.1705 678.342 80.6705 674.742 109.67L641.042 380.57C637.943 405.17 616.642 423.47 591.842 422.77Z" fill="#EAF9F3"/>
</mask>
<g mask="url(#mask0_301_4104)">
<path d="M436.143 434.57L437.943 475.07C437.943 483.37 431.243 490.07 422.943 490.07H7.34253C-0.957471 490.07 -7.65747 483.37 -7.65747 475.07V239.37C-7.65747 231.07 -0.957471 224.37 7.34253 224.37H422.843C431.143 224.37 437.843 231.07 437.843 239.37V398.77" stroke="#B8D8C7" stroke-width="1.8" stroke-miterlimit="10" stroke-linecap="round" stroke-linejoin="round"/>
<path d="M529.243 399.77V167.67C529.243 159.37 535.943 152.67 544.243 152.67H668.243C676.543 152.67 683.243 159.37 683.243 167.67V511.97C683.243 520.27 676.543 526.97 668.243 526.97H544.243C535.943 526.97 529.243 520.27 529.243 511.97V437.07" stroke="#B8D8C7" stroke-width="1.8" stroke-miterlimit="10" stroke-linecap="round" stroke-linejoin="round"/>
<path d="M85.4425 154.07H-4.45752V145.17H85.4425C86.4425 145.17 87.2425 145.97 87.2425 146.97V152.17C87.3425 153.17 86.5425 154.07 85.4425 154.07Z" stroke="#B8D8C7" stroke-width="1.8" stroke-miterlimit="10" stroke-linecap="round" stroke-linejoin="round"/>
<path d="M71.7425 224.37H51.4425C49.2425 224.37 47.4425 222.77 47.1425 220.57L45.5425 206.17C45.2425 203.67 47.2425 201.37 49.8425 201.37H73.3425C75.9425 201.37 77.8425 203.57 77.6425 206.17L76.0425 220.57C75.8425 222.77 73.9425 224.37 71.7425 224.37Z" stroke="#B8D8C7" stroke-width="1.8" stroke-miterlimit="10" stroke-linecap="round" stroke-linejoin="round"/>
<path d="M59.2426 201.47C59.2426 201.47 51.2426 200.67 49.6426 189.87C49.6426 189.87 56.8426 191.97 59.1426 197.07C59.1426 197.07 60.1426 185.67 65.5426 184.57C65.5426 184.57 67.9426 193.07 64.1426 197.27C64.1426 197.27 67.0426 192.47 74.4426 192.57C74.4426 192.57 72.5426 199.37 65.2426 201.37" fill="#B8D8C7"/>
<path d="M617.843 152.67H597.543C595.343 152.67 593.543 151.07 593.243 148.87L591.643 134.47C591.343 131.97 593.343 129.67 595.943 129.67H619.443C622.043 129.67 623.943 131.87 623.743 134.47L622.143 148.87C621.843 151.07 620.043 152.67 617.843 152.67Z" stroke="#B8D8C7" stroke-width="1.8" stroke-miterlimit="10" stroke-linecap="round" stroke-linejoin="round"/>
<path d="M605.243 129.77C605.243 129.77 597.243 128.97 595.643 118.17C595.643 118.17 602.843 120.27 605.143 125.37C605.143 125.37 606.143 113.97 611.543 112.87C611.543 112.87 613.943 121.37 610.143 125.57C610.143 125.57 613.043 120.77 620.443 120.87C620.443 120.87 618.543 127.67 611.243 129.67" fill="#B8D8C7"/>
<path d="M419.743 274.07H329.543C327.243 274.07 325.343 272.17 325.343 269.87V242.47C325.343 240.17 327.243 238.27 329.543 238.27H419.743C422.043 238.27 423.943 240.17 423.943 242.47V269.87C423.943 272.17 422.043 274.07 419.743 274.07Z" stroke="#B8D8C7" stroke-width="1.8" stroke-miterlimit="10" stroke-linecap="round" stroke-linejoin="round"/>
<path d="M384.943 247.97H364.143C363.343 247.97 362.643 247.27 362.643 246.47C362.643 245.67 363.343 244.97 364.143 244.97H384.943C385.743 244.97 386.443 245.67 386.443 246.47C386.443 247.27 385.843 247.97 384.943 247.97Z" fill="#B8D8C7"/>
<path d="M419.743 319.97H329.543C327.243 319.97 325.343 318.07 325.343 315.77V288.37C325.343 286.07 327.243 284.17 329.543 284.17H419.743C422.043 284.17 423.943 286.07 423.943 288.37V315.77C423.943 318.07 422.043 319.97 419.743 319.97Z" stroke="#B8D8C7" stroke-width="1.8" stroke-miterlimit="10" stroke-linecap="round" stroke-linejoin="round"/>
<path d="M384.943 293.77H364.143C363.343 293.77 362.643 293.07 362.643 292.27C362.643 291.47 363.343 290.77 364.143 290.77H384.943C385.743 290.77 386.443 291.47 386.443 292.27C386.443 293.07 385.843 293.77 384.943 293.77Z" fill="#B8D8C7"/>
<path d="M304.743 274.07H214.543C212.243 274.07 210.343 272.17 210.343 269.87V242.47C210.343 240.17 212.243 238.27 214.543 238.27H304.743C307.043 238.27 308.943 240.17 308.943 242.47V269.87C308.943 272.17 307.043 274.07 304.743 274.07Z" stroke="#B8D8C7" stroke-width="1.8" stroke-miterlimit="10" stroke-linecap="round" stroke-linejoin="round"/>
<path d="M270.043 247.97H249.243C248.443 247.97 247.743 247.27 247.743 246.47C247.743 245.67 248.443 244.97 249.243 244.97H270.043C270.843 244.97 271.543 245.67 271.543 246.47C271.543 247.27 270.843 247.97 270.043 247.97Z" fill="#B8D8C7"/>
<path d="M304.743 319.97H214.543C212.243 319.97 210.343 318.07 210.343 315.77V288.37C210.343 286.07 212.243 284.17 214.543 284.17H304.743C307.043 284.17 308.943 286.07 308.943 288.37V315.77C308.943 318.07 307.043 319.97 304.743 319.97Z" stroke="#B8D8C7" stroke-width="1.8" stroke-miterlimit="10" stroke-linecap="round" stroke-linejoin="round"/>
<path d="M270.043 293.77H249.243C248.443 293.77 247.743 293.07 247.743 292.27C247.743 291.47 248.443 290.77 249.243 290.77H270.043C270.843 290.77 271.543 291.47 271.543 292.27C271.543 293.07 270.843 293.77 270.043 293.77Z" fill="#B8D8C7"/>
<path d="M419.743 364.77H329.543C327.243 364.77 325.343 362.87 325.343 360.57V333.17C325.343 330.87 327.243 328.97 329.543 328.97H419.743C422.043 328.97 423.943 330.87 423.943 333.17V360.57C423.943 362.87 422.043 364.77 419.743 364.77Z" stroke="#B8D8C7" stroke-width="1.8" stroke-miterlimit="10" stroke-linecap="round" stroke-linejoin="round"/>
<path d="M384.943 338.67H364.143C363.343 338.67 362.643 337.97 362.643 337.17C362.643 336.37 363.343 335.67 364.143 335.67H384.943C385.743 335.67 386.443 336.37 386.443 337.17C386.443 337.97 385.843 338.67 384.943 338.67Z" fill="#B8D8C7"/>
<path d="M304.743 364.77H214.543C212.243 364.77 210.343 362.87 210.343 360.57V333.17C210.343 330.87 212.243 328.97 214.543 328.97H304.743C307.043 328.97 308.943 330.87 308.943 333.17V360.57C308.943 362.87 307.043 364.77 304.743 364.77Z" stroke="#B8D8C7" stroke-width="1.8" stroke-miterlimit="10" stroke-linecap="round" stroke-linejoin="round"/>
<path d="M270.043 338.67H249.243C248.443 338.67 247.743 337.97 247.743 337.17C247.743 336.37 248.443 335.67 249.243 335.67H270.043C270.843 335.67 271.543 336.37 271.543 337.17C271.543 337.97 270.843 338.67 270.043 338.67Z" fill="#B8D8C7"/>
<path d="M710.443 257.47H550.543C548.043 257.47 545.943 255.37 545.943 252.87V173.17C545.943 170.67 548.043 168.57 550.543 168.57H710.443C712.943 168.57 715.043 170.67 715.043 173.17V252.87C715.043 255.47 713.043 257.47 710.443 257.47Z" stroke="#B8D8C7" stroke-width="1.8" stroke-miterlimit="10" stroke-linecap="round" stroke-linejoin="round"/>
<path d="M710.443 356.47H550.543C548.043 356.47 545.943 354.37 545.943 351.87V272.17C545.943 269.67 548.043 267.57 550.543 267.57H710.443C712.943 267.57 715.043 269.67 715.043 272.17V351.87C715.043 354.37 713.043 356.47 710.443 356.47Z" stroke="#B8D8C7" stroke-width="1.8" stroke-miterlimit="10" stroke-linecap="round" stroke-linejoin="round"/>
<path d="M586.543 207.17H576.643V257.47H586.543V207.17Z" stroke="#B8D8C7" stroke-width="1.8" stroke-miterlimit="10" stroke-linecap="round" stroke-linejoin="round"/>
<path d="M596.743 220.97H586.443V257.57H596.743V220.97Z" stroke="#B8D8C7" stroke-width="1.8" stroke-miterlimit="10" stroke-linecap="round" stroke-linejoin="round"/>
<path d="M49.2425 94.8705H39.3425V145.17H49.2425V94.8705Z" stroke="#B8D8C7" stroke-width="1.8" stroke-miterlimit="10" stroke-linecap="round" stroke-linejoin="round"/>
<path d="M59.4426 108.57H49.1426V145.17H59.4426V108.57Z" stroke="#B8D8C7" stroke-width="1.8" stroke-miterlimit="10" stroke-linecap="round" stroke-linejoin="round"/>
<path d="M29.0426 115.77H19.1426V145.17H29.0426V115.77Z" stroke="#B8D8C7" stroke-width="1.8" stroke-miterlimit="10" stroke-linecap="round" stroke-linejoin="round"/>
<path d="M39.3425 86.2705H29.0425V145.07H39.3425V86.2705Z" stroke="#B8D8C7" stroke-width="1.8" stroke-miterlimit="10" stroke-linecap="round" stroke-linejoin="round"/>
<path d="M580.343 312.77L581.443 297.87C581.543 296.87 580.743 296.07 579.743 296.07H575.543H571.243C570.243 296.07 569.543 296.87 569.543 297.87L570.642 312.77C570.642 312.77 561.643 318.57 561.743 323.37C561.843 327.07 564.043 344.77 565.043 352.57C565.343 354.77 567.143 356.37 569.343 356.37H575.543H581.743C583.943 356.37 585.743 354.77 586.043 352.57C587.043 344.77 589.243 327.07 589.343 323.37C589.343 318.57 580.343 312.77 580.343 312.77Z" fill="#B8D8C7"/>
<path d="M628.543 213.87L629.643 198.97C629.743 197.97 628.943 197.17 627.943 197.17H623.643H619.343C618.343 197.17 617.643 197.97 617.643 198.97L618.743 213.87C618.743 213.87 609.743 219.67 609.843 224.47C609.943 228.17 612.143 245.87 613.143 253.67C613.443 255.87 615.243 257.47 617.443 257.47H623.643H629.843C632.043 257.47 633.843 255.87 634.143 253.67C635.143 245.87 637.343 228.17 637.443 224.47C637.543 219.67 628.543 213.87 628.543 213.87Z" fill="#B8D8C7"/>
<path d="M5.94263 394.07L708.943 401.77" stroke="#B8D8C7" stroke-width="1.8" stroke-miterlimit="10" stroke-linecap="round" stroke-linejoin="round"/>
</g>
<path d="M376.042 38.1705C372.142 46.4705 363.142 51.9705 356.842 50.2705C351.342 48.7705 350.342 42.2705 353.842 35.7705C357.242 29.5705 364.042 24.5705 369.942 24.4705C376.442 24.2705 379.642 30.2705 376.042 38.1705Z" fill="#F8AB5D"/>
<path d="M374.142 36.4705C370.242 44.7705 361.243 50.2705 354.943 48.5705C349.443 47.0705 348.443 40.5705 351.943 34.0705C355.343 27.8705 362.143 22.8705 368.043 22.7705C374.543 22.5705 377.742 28.5705 374.142 36.4705Z" fill="#FB0C0C"/>
<path d="M370.942 36.0705C368.042 42.2705 361.242 46.4705 356.442 45.3705C352.142 44.3705 351.142 39.3705 353.842 34.2705C356.442 29.3705 361.942 25.4705 366.442 25.4705C371.542 25.5705 373.742 30.1705 370.942 36.0705Z" fill="#F8AB5D"/>
<path d="M357.943 41.3705L358.343 40.6705C358.443 40.3705 358.443 40.1705 358.243 40.0705C357.743 39.9705 357.343 39.6705 357.143 39.3705C357.043 39.2705 357.043 38.9705 357.243 38.6705L357.343 38.5705C357.543 38.2705 357.943 38.1705 358.043 38.3705C358.343 38.6705 358.743 38.9705 359.343 39.0705C360.343 39.2705 361.343 38.6705 361.843 37.6705C362.343 36.7705 362.043 36.0705 361.243 35.4705C360.143 34.6705 359.743 33.8705 360.443 32.4705C361.043 31.2705 362.143 30.3705 363.443 30.1705C363.643 30.1705 363.843 29.9705 364.043 29.6705L364.443 28.9705C364.543 28.6705 364.843 28.4705 365.143 28.4705C365.343 28.4705 365.443 28.6705 365.343 28.9705L365.043 29.5705C364.943 29.8705 364.943 30.0705 365.243 30.0705C365.643 30.1705 365.943 30.2705 366.143 30.4705C366.343 30.5705 366.243 30.8705 366.043 31.1705L365.943 31.2705C365.743 31.5705 365.343 31.6705 365.243 31.4705C364.943 31.2705 364.643 31.0705 364.043 31.0705C362.943 30.9705 362.243 31.6705 361.843 32.3705C361.443 33.1705 361.743 33.6705 362.643 34.3705C363.743 35.1705 364.143 36.1705 363.343 37.6705C362.743 38.9705 361.443 39.9705 359.943 40.1705C359.743 40.1705 359.443 40.3705 359.343 40.6705L358.943 41.4705C358.843 41.7705 358.443 41.9705 358.243 41.9705C357.843 41.9705 357.743 41.6705 357.943 41.3705Z" fill="#FB0C0C"/>
<path d="M558.343 216.87L519.543 214.47C516.843 214.27 514.843 211.97 515.043 209.27L520.943 129.67C521.143 126.97 523.343 124.77 526.143 124.57L565.843 122.17C568.743 121.97 571.143 124.47 570.943 127.37L564.343 211.77C563.943 214.87 561.343 217.07 558.343 216.87Z" fill="#22272E"/>
<path d="M555.643 216.87L516.843 214.47C514.143 214.27 512.143 211.97 512.343 209.27L518.243 129.67C518.443 126.97 520.643 124.77 523.443 124.57L563.143 122.17C566.043 121.97 568.443 124.47 568.243 127.37L561.643 211.77C561.243 214.87 558.643 217.07 555.643 216.87Z" fill="#22272E"/>
<path d="M543.743 131.47L536.343 131.87C535.743 131.87 535.343 131.47 535.343 130.87C535.343 130.27 535.843 129.77 536.443 129.77L543.843 129.37C544.443 129.37 544.843 129.77 544.843 130.37C544.843 130.97 544.343 131.47 543.743 131.47Z" fill="#63737A"/>
<path d="M548.043 131.27H547.843C547.243 131.27 546.843 130.87 546.843 130.27C546.843 129.67 547.443 129.17 548.043 129.07H548.243C548.843 129.07 549.243 129.47 549.243 130.07C549.143 130.67 548.643 131.27 548.043 131.27Z" fill="#63737A"/>
<path d="M536.443 144.77L526.543 145.07C525.543 145.07 524.743 144.27 524.843 143.17C524.943 142.07 525.843 141.27 526.843 141.17L536.743 140.77C537.743 140.77 538.543 141.57 538.443 142.67C538.443 143.77 537.543 144.67 536.443 144.77Z" fill="#63737A"/>
<path d="M533.843 179.17L524.043 179.07C523.043 179.07 522.343 178.17 522.343 177.17C522.443 176.17 523.343 175.27 524.343 175.27L534.143 175.37C535.143 175.37 535.943 176.27 535.843 177.27C535.743 178.37 534.843 179.17 533.843 179.17Z" fill="#63737A"/>
<path d="M531.743 206.97L521.943 206.47C520.943 206.47 520.243 205.57 520.243 204.47C520.343 203.47 521.143 202.57 522.143 202.67L531.943 203.07C532.943 203.07 533.743 203.97 533.643 205.07C533.643 206.17 532.743 206.97 531.743 206.97Z" fill="#63737A"/>
<path d="M554.543 166.87L525.343 166.97C524.143 166.97 523.143 165.97 523.243 164.67L524.143 151.97C524.243 150.87 525.143 150.07 526.143 150.07L555.443 149.27C556.643 149.27 557.643 150.27 557.543 151.57L556.543 164.87C556.543 165.97 555.643 166.87 554.543 166.87Z" fill="#B8D8C7"/>
<path d="M533.143 196.27L523.143 195.87C521.943 195.87 521.043 194.77 521.143 193.57L521.743 185.97C521.843 184.87 522.743 183.97 523.843 184.07L533.943 184.27C535.143 184.27 536.043 185.37 536.043 186.57L535.443 194.37C535.243 195.47 534.343 196.27 533.143 196.27Z" fill="#FB0C0C"/>
<path d="M552.143 196.87L541.443 196.47C540.243 196.47 539.343 195.37 539.443 194.17L540.043 186.27C540.143 185.17 541.043 184.27 542.143 184.37L552.943 184.57C554.143 184.57 555.043 185.67 555.043 186.87L554.443 194.97C554.243 196.07 553.243 196.97 552.143 196.87Z" fill="#F4C2C9"/>
<path d="M312.743 93.7704L280.243 95.2704C277.643 95.3704 275.842 93.2704 276.142 90.5704L281.542 36.5704C281.842 33.7704 284.143 31.2704 286.743 30.9704L319.842 26.6704C322.742 26.2704 324.742 28.3704 324.442 31.2704L318.342 88.3704C318.142 91.1704 315.543 93.5704 312.743 93.7704Z" fill="#22272E"/>
<path d="M310.343 92.6704L277.843 94.1704C275.243 94.2704 273.443 92.1704 273.743 89.4704L279.143 35.4704C279.443 32.6704 281.743 30.1704 284.343 29.8704L317.443 25.5705C320.343 25.1705 322.343 27.2704 322.043 30.1704L315.943 87.2705C315.643 90.1704 313.143 92.5704 310.343 92.6704Z" fill="#22272E"/>
<path d="M311.843 43.7704L286.543 46.4704C285.743 46.5704 285.043 45.8705 285.143 45.0705L285.743 38.8704C285.843 38.2704 286.243 37.7704 286.843 37.7704L312.243 34.7704C313.043 34.6704 313.743 35.3704 313.643 36.1704L312.943 42.6704C312.943 43.2704 312.443 43.7704 311.843 43.7704Z" fill="#F4C2C9"/>
<path d="M288.343 60.9705L285.043 61.2705C284.243 61.3705 283.543 60.6705 283.643 59.8705L284.043 56.2705C284.143 55.6705 284.543 55.1705 285.143 55.1705L288.443 54.8705C289.243 54.7705 289.943 55.4705 289.843 56.2705L289.443 59.8705C289.443 60.4705 288.943 60.8705 288.343 60.9705Z" fill="#B8D8C7"/>
<path d="M310.243 59.0705L306.643 59.3704C305.843 59.4704 305.143 58.7704 305.243 57.9704L305.643 54.1704C305.743 53.5704 306.143 53.0705 306.743 53.0705L310.343 52.6704C311.143 52.5704 311.843 53.2705 311.743 54.0705L311.343 57.8704C311.343 58.4704 310.843 58.9705 310.243 59.0705Z" fill="#B8D8C7"/>
<path d="M299.143 59.9704L295.743 60.2704C294.943 60.3704 294.243 59.6704 294.343 58.8704L294.743 55.1704C294.843 54.5704 295.243 54.0705 295.843 54.0705L299.243 53.7704C300.043 53.6704 300.743 54.3704 300.643 55.1704L300.243 58.8704C300.243 59.4704 299.743 59.9704 299.143 59.9704Z" fill="#B8D8C7"/>
<path d="M287.043 73.2704L283.743 73.4704C282.943 73.5704 282.343 72.8705 282.343 72.0705L282.743 68.4704C282.843 67.8704 283.343 67.3704 283.943 67.3704L287.243 67.0705C288.043 66.9705 288.743 67.6704 288.643 68.4704L288.243 72.0705C288.143 72.7705 287.643 73.2704 287.043 73.2704Z" fill="#B8D8C7"/>
<path d="M308.943 71.7704L305.343 72.0705C304.543 72.1705 303.943 71.4704 303.943 70.6704L304.343 66.9704C304.443 66.3704 304.943 65.8704 305.543 65.8704L309.143 65.5705C309.943 65.4705 310.643 66.1704 310.543 66.9704L310.143 70.7704C310.043 71.1704 309.543 71.6704 308.943 71.7704Z" fill="#B8D8C7"/>
<path d="M297.842 72.5705L294.442 72.7704C293.642 72.8704 293.042 72.1704 293.042 71.3704L293.442 67.6704C293.542 67.0704 294.042 66.5705 294.642 66.5705L298.042 66.2704C298.842 66.1704 299.542 66.8704 299.442 67.6704L299.042 71.3704C298.942 71.9704 298.442 72.4705 297.842 72.5705Z" fill="#B8D8C7"/>
<path d="M285.743 85.5705L282.543 85.7704C281.743 85.7704 281.143 85.1704 281.243 84.3704L281.643 80.7704C281.743 80.1704 282.243 79.6704 282.843 79.6704L286.043 79.4704C286.843 79.3704 287.443 80.0704 287.343 80.8704L286.943 84.4704C286.943 85.0704 286.343 85.5705 285.743 85.5705Z" fill="#B8D8C7"/>
<path d="M307.542 84.3704L303.942 84.5705C303.142 84.5705 302.542 83.9704 302.642 83.1704L303.042 79.4704C303.142 78.8704 303.643 78.3704 304.243 78.3704L307.842 78.1704C308.642 78.0704 309.242 78.7705 309.142 79.5705L308.743 83.3704C308.643 83.8704 308.142 84.3704 307.542 84.3704Z" fill="#FB0C0C"/>
<path d="M296.542 84.9704L293.142 85.1704C292.342 85.1704 291.742 84.5704 291.842 83.7704L292.242 80.1704C292.342 79.5704 292.842 79.0705 293.442 79.0705L296.842 78.8704C297.642 78.7704 298.242 79.4704 298.142 80.2704L297.742 83.9704C297.642 84.4704 297.142 84.9704 296.542 84.9704Z" fill="#FB0C0C"/>
<path d="M344.243 93.1705L500.843 76.9705C503.743 76.6705 506.143 79.0705 505.943 81.9705L492.543 234.37C492.243 238.17 488.943 240.97 485.243 240.77L333.143 232.57C330.543 232.47 328.643 230.17 328.743 227.67L337.943 99.7705C338.243 96.2705 340.843 93.5705 344.243 93.1705Z" fill="#F8AB5D"/>
<path d="M338.543 91.4705L496.943 75.0705C499.843 74.7705 502.343 77.1705 502.043 80.1705L488.543 234.27C488.243 238.07 484.943 240.97 481.143 240.67L327.243 232.37C324.643 232.27 322.643 229.97 322.843 227.37L332.143 97.9705C332.543 94.5705 335.143 91.8705 338.543 91.4705Z" fill="#FB0C0C"/>
<path d="M354.943 124.67L347.743 125.07L346.843 138.47L353.943 138.27L354.943 124.67Z" fill="#6DAFA7"/>
<path d="M346.843 138.47L346.343 145.07L353.443 144.87L353.943 138.27L346.843 138.47Z" fill="#B8D8C7"/>
<path d="M370.443 106.47L363.243 106.97L362.043 124.27L369.143 123.97L370.443 106.47Z" fill="#6DAFA7"/>
<path d="M362.043 124.27L360.543 144.67L367.643 144.47L369.143 123.97L362.043 124.27Z" fill="#B8D8C7"/>
<path d="M377.043 112.77L376.243 123.57L383.343 123.17L384.143 112.27L377.043 112.77Z" fill="#6DAFA7"/>
<path d="M376.243 123.57L374.743 144.37L381.843 144.17L383.343 123.17L376.243 123.57Z" fill="#B8D8C7"/>
<path d="M397.543 122.37L390.443 122.77L389.943 130.37L397.043 129.97L397.543 122.37Z" fill="#6DAFA7"/>
<path d="M389.943 130.37L388.943 143.97L396.043 143.77L397.043 129.97L389.943 130.37Z" fill="#B8D8C7"/>
<path d="M412.643 110.27L411.743 121.67L411.243 129.17L404.143 129.57L404.643 121.97L405.543 110.77L412.643 110.27Z" fill="#6DAFA7"/>
<path d="M404.143 129.57L403.043 143.57L410.143 143.47L411.243 129.17L404.143 129.57Z" fill="#B8D8C7"/>
<path d="M469.743 102.07L457.043 122.17L445.943 107.07C450.343 103.47 455.643 101.17 461.143 100.77C464.343 100.57 467.243 101.07 469.743 102.07Z" fill="#22272E"/>
<path d="M479.643 120.57L457.043 122.17L469.743 102.07C476.743 104.87 480.843 111.87 479.643 120.57Z" fill="#F4C2C9"/>
<path d="M479.643 120.57C479.643 120.87 479.543 121.17 479.543 121.47C477.443 133.37 466.343 143.27 454.643 144.17L457.043 122.17L479.643 120.57Z" fill="#B8D8C7"/>
<path d="M457.043 122.17L454.643 144.17C454.043 144.27 453.343 144.27 452.743 144.27C440.843 144.27 433.543 134.57 436.043 122.87C437.343 116.77 441.043 111.17 445.943 107.17L457.043 122.17Z" fill="white"/>
<path d="M476.443 161.27L471.243 211.97L340.543 209.57L340.743 205.67L369.043 186.17C370.343 185.27 372.043 185.27 373.343 186.27L383.943 194.07C385.543 195.27 387.943 194.97 389.143 193.27L399.643 179.27C401.143 177.27 404.143 177.27 405.643 179.37L414.943 192.27C416.143 193.97 418.543 194.37 420.243 193.07C421.543 192.07 423.343 192.07 424.643 192.97L431.243 197.67C432.943 198.87 435.343 198.47 436.543 196.67L451.343 173.87C452.543 172.07 454.943 171.67 456.643 172.87L460.943 175.97C462.643 177.17 464.943 176.87 466.143 175.17L476.443 161.27Z" fill="#6DAFA7"/>
<path d="M381.343 177.37H375.643C375.343 177.37 375.143 177.47 374.943 177.67L373.643 178.97C373.243 179.37 372.543 179.37 372.243 178.97L371.243 177.67C371.043 177.47 370.843 177.37 370.543 177.37H365.043C364.543 177.37 364.143 176.97 364.243 176.47L365.043 165.67C365.043 165.17 365.543 164.67 366.043 164.67L382.343 164.07C382.843 164.07 383.243 164.47 383.243 164.97L382.343 176.27C382.343 176.87 381.943 177.37 381.343 177.37Z" fill="white"/>
<path d="M434.743 182.77L429.043 182.67C428.743 182.67 428.543 182.77 428.343 182.97L427.043 184.27C426.643 184.67 426.043 184.67 425.643 184.17L424.643 182.87C424.443 182.67 424.243 182.57 423.943 182.57L418.543 182.47C418.043 182.47 417.743 182.07 417.743 181.47L418.543 170.57C418.543 170.07 419.043 169.57 419.443 169.57L435.743 169.17C436.243 169.17 436.643 169.57 436.643 170.17L435.743 181.77C435.743 182.37 435.243 182.87 434.743 182.77Z" fill="#F4C2C9"/>
<path d="M160.843 471.27C160.443 472.57 159.543 477.77 158.843 482.57C146.943 484.57 136.743 479.871 136.743 479.871C137.243 474.871 137.743 469.67 137.743 469.67C137.743 466.87 161.643 468.87 160.843 471.27Z" fill="#22272E"/>
<path d="M158.843 482.47C158.243 486.67 157.643 490.37 157.643 490.37C157.643 490.37 154.943 496.67 148.143 496.67C141.243 496.67 135.843 490.97 135.943 488.57C136.043 487.47 136.343 483.67 136.743 479.77C136.743 479.77 146.843 484.47 158.843 482.47Z" fill="#F4C2C9"/>
<path d="M136.043 486.67C136.043 486.67 137.943 488.77 139.143 489.77C140.243 490.77 143.643 487.67 148.443 488.27C153.243 488.87 154.743 490.77 154.743 490.77C154.743 490.77 156.743 490.37 157.843 489.47C157.843 489.47 157.843 492.87 159.343 496.77C160.843 500.67 168.443 512.07 168.443 514.27C168.443 516.47 167.943 518.17 166.343 518.87C164.743 519.57 154.143 519.67 145.243 519.87C136.343 520.07 129.443 520.57 128.443 517.07C127.443 513.57 131.543 502.67 133.243 495.97C134.943 489.17 134.643 486.77 136.043 486.67Z" fill="#22272E"/>
<path d="M137.543 505.17C137.543 505.17 148.243 499.47 158.443 505.17" stroke="white" stroke-width="1.8" stroke-miterlimit="10" stroke-linecap="round" stroke-linejoin="round"/>
<path d="M139.543 499.57C139.543 499.57 147.843 496.87 156.543 499.57" stroke="white" stroke-width="1.8" stroke-miterlimit="10" stroke-linecap="round" stroke-linejoin="round"/>
<path d="M264.643 478.17C253.243 482.07 241.443 479.67 241.543 479.77C241.143 474.17 240.643 468.27 240.643 468.27C242.143 464.77 263.643 463.17 263.843 464.67C263.843 465.47 264.243 472.07 264.643 478.17Z" fill="#22272E"/>
<path d="M265.243 488.77C265.243 488.77 263.743 493.47 257.243 495.87C250.743 498.27 242.443 491.77 242.343 489.87C242.243 489.07 241.943 484.47 241.543 479.77C241.543 479.67 253.243 482.07 264.643 478.17C264.943 483.67 265.243 488.77 265.243 488.77Z" fill="#F4C2C9"/>
<path d="M242.143 488.47C241.443 488.47 240.943 489.47 240.543 495.77C240.143 502.07 238.143 515.97 240.543 518.07C242.943 520.17 290.843 519.57 296.343 519.17C301.843 518.77 304.843 515.17 303.143 512.77C301.443 510.37 289.643 505.97 279.243 498.97C268.843 491.97 266.343 490.47 265.143 488.77C265.143 488.77 265.743 483.07 262.643 483.97C259.543 484.87 257.443 492.27 253.443 493.27C249.543 494.17 248.943 488.07 242.143 488.47Z" fill="#22272E"/>
<path d="M281.543 499.171C281.543 499.171 278.843 498.371 272.743 504.871" stroke="white" stroke-width="1.8" stroke-miterlimit="10" stroke-linecap="round" stroke-linejoin="round"/>
<path d="M274.943 494.871C274.943 494.871 270.143 494.67 264.643 501.77" stroke="white" stroke-width="1.8" stroke-miterlimit="10" stroke-linecap="round" stroke-linejoin="round"/>
<path d="M140.543 481.17L141.143 477.17" stroke="#63737A" stroke-width="1.8" stroke-miterlimit="10" stroke-linecap="round" stroke-linejoin="round"/>
<path d="M147.443 482.67L148.043 478.67" stroke="#63737A" stroke-width="1.8" stroke-miterlimit="10" stroke-linecap="round" stroke-linejoin="round"/>
<path d="M155.043 482.97L155.743 479.37" stroke="#63737A" stroke-width="1.8" stroke-miterlimit="10" stroke-linecap="round" stroke-linejoin="round"/>
<path d="M246.043 480.27L245.743 476.07" stroke="#63737A" stroke-width="1.8" stroke-miterlimit="10" stroke-linecap="round" stroke-linejoin="round"/>
<path d="M254.343 480.17L254.043 475.57" stroke="#63737A" stroke-width="1.8" stroke-miterlimit="10" stroke-linecap="round" stroke-linejoin="round"/>
<path d="M261.843 478.97L261.543 474.67" stroke="#63737A" stroke-width="1.8" stroke-miterlimit="10" stroke-linecap="round" stroke-linejoin="round"/>
<path d="M133.843 247.37C133.843 247.37 131.343 257.67 131.043 271.37C130.743 285.07 141.443 327.97 145.343 342.47C149.243 357.07 148.443 359.27 147.843 362.07C147.243 364.87 141.243 387.07 139.243 410.07C137.243 433.07 130.043 451.57 130.843 458.67C131.943 468.27 136.043 471.07 137.743 472.17C139.443 473.27 153.443 477.77 162.943 475.57C162.943 475.57 173.043 469.17 174.943 460.17C176.943 451.17 175.743 440.27 182.243 410.87C188.643 381.471 191.743 369.37 192.643 357.67C193.143 350.67 193.243 330.67 193.343 315.37C193.443 304.97 193.443 296.67 193.543 295.87C193.843 293.87 198.743 296.17 201.343 289.77C202.443 286.87 203.043 281.37 203.143 275.47C203.343 267.97 202.843 259.77 201.843 255.27C200.243 246.97 135.443 238.57 133.843 247.37Z" fill="#22272E"/>
<path d="M271.043 460.47C269.343 464.67 266.243 469.47 263.443 470.57C260.643 471.67 248.043 473.37 241.643 472.77C241.643 472.77 230.943 469.67 229.843 461.57C228.743 453.47 230.643 444.47 227.043 426.27C223.443 408.07 220.343 375.87 219.443 366.37C218.643 356.87 198.943 328.57 189.743 311.47C180.543 294.37 170.643 263.07 178.843 255.77C187.043 248.37 216.343 245.17 225.043 251.07C225.043 251.07 235.143 275.67 245.243 305.07C254.543 332.07 256.443 341.17 257.743 348.97C257.843 349.67 257.943 350.37 258.143 351.07C258.543 353.47 259.043 359.67 259.743 367.67C261.343 387.97 263.243 419.471 264.043 426.671C265.143 436.671 272.743 456.27 271.043 460.47Z" fill="#22272E"/>
<path d="M187.943 297.37C187.943 297.37 198.543 293.47 207.943 291.97" stroke="#63737A" stroke-width="1.8" stroke-miterlimit="10" stroke-linecap="round" stroke-linejoin="round"/>
<path d="M186.117 366.985C187.562 359.726 182.937 352.688 175.787 351.265C168.636 349.842 161.669 354.573 160.224 361.831C158.78 369.09 163.405 376.128 170.555 377.551C177.705 378.974 184.673 374.243 186.117 366.985Z" stroke="#63737A" stroke-width="1.8" stroke-miterlimit="10" stroke-linecap="round" stroke-linejoin="round"/>
<path d="M259.743 367.57C257.343 370.57 253.643 372.47 249.543 372.47C242.243 372.47 236.343 366.57 236.343 359.17C236.343 351.87 242.243 345.87 249.443 345.87C252.543 345.87 255.443 346.97 257.743 348.87" stroke="#63737A" stroke-width="1.8" stroke-miterlimit="10" stroke-linecap="round" stroke-linejoin="round"/>
<path d="M136.143 294.67C136.143 294.67 147.243 285.67 147.343 269.07C147.343 269.07 140.343 268.67 136.143 267.67" stroke="#63737A" stroke-width="1.8" stroke-miterlimit="10" stroke-linecap="round" stroke-linejoin="round"/>
<path d="M193.343 315.37C193.443 304.97 193.443 296.67 193.543 295.87C193.843 293.87 198.743 296.17 201.343 289.77C202.443 286.87 203.043 281.37 203.143 275.47" stroke="#63737A" stroke-width="1.8" stroke-miterlimit="10" stroke-linecap="round" stroke-linejoin="round"/>
<path d="M222.843 132.87C222.843 132.87 231.043 133.27 244.243 159.67C257.443 185.97 262.143 195.57 262.143 195.57C262.143 195.57 270.843 193.47 285.043 191.17C299.243 188.87 319.243 185.97 319.243 185.97C319.243 185.97 324.643 186.07 326.943 193.77C328.543 199.37 326.043 203.37 324.543 205.17C324.043 205.77 323.443 206.27 322.643 206.57C316.543 209.17 280.943 224.17 268.843 226.77C255.543 229.57 249.043 229.17 237.243 212.97C225.443 196.77 216.143 184.17 211.843 177.67C207.543 170.87 204.443 133.87 222.843 132.87Z" fill="#6DAFA7"/>
<path d="M245.343 222.17C245.343 222.17 244.643 216.87 254.943 216.87C265.243 216.87 270.543 224.57 268.043 226.77" stroke="#22272E" stroke-width="1.8" stroke-miterlimit="10" stroke-linecap="round" stroke-linejoin="round"/>
<path d="M262.143 195.47C262.143 195.47 257.843 197.47 256.943 200.47" stroke="#22272E" stroke-width="1.8" stroke-miterlimit="10" stroke-linecap="round" stroke-linejoin="round"/>
<path d="M319.743 186.77C319.743 186.77 324.143 185.17 325.243 184.57C326.343 183.97 328.743 179.77 330.743 177.17C332.743 174.57 338.443 173.07 340.043 173.37C341.643 173.67 342.243 174.67 342.243 174.67C342.243 174.67 347.243 172.87 350.643 171.47C354.043 170.07 360.343 166.97 361.243 169.47C361.743 170.97 357.843 173.17 355.143 174.67C351.843 176.57 349.643 177.97 349.643 177.97C349.643 177.97 351.243 178.77 351.643 180.87C352.043 182.97 353.143 185.27 351.143 188.47C350.543 189.37 352.843 191.87 351.043 194.17C347.943 197.87 340.443 199.77 336.443 200.97C332.343 202.17 323.043 202.77 323.043 202.77C323.043 202.77 320.043 202.07 318.743 195.57C317.443 189.07 319.743 186.77 319.743 186.77Z" fill="#F4C2C9"/>
<path d="M342.243 174.67C342.243 174.67 342.943 176.47 343.743 179.17C344.543 181.87 345.143 183.97 343.043 184.07C340.943 184.17 339.043 180.97 338.243 179.37" stroke="#E26E85" stroke-width="1.8" stroke-miterlimit="10" stroke-linecap="round" stroke-linejoin="round"/>
<path d="M339.643 181.67C339.643 181.67 341.943 186.27 336.643 190.27" stroke="#E26E85" stroke-width="1.8" stroke-miterlimit="10" stroke-linecap="round" stroke-linejoin="round"/>
<path d="M349.743 177.97L344.143 180.57" stroke="#E26E85" stroke-width="1.8" stroke-miterlimit="10" stroke-linecap="round" stroke-linejoin="round"/>
<path d="M341.343 183.47C341.343 183.47 340.343 185.07 341.343 185.97C342.343 186.87 347.843 184.87 351.843 182.57" stroke="#E26E85" stroke-width="1.8" stroke-miterlimit="10" stroke-linecap="round" stroke-linejoin="round"/>
<path d="M342.242 186.17C342.242 186.17 340.542 187.07 341.342 188.87C342.142 190.67 346.442 189.97 351.142 188.47" stroke="#E26E85" stroke-width="1.8" stroke-miterlimit="10" stroke-linecap="round" stroke-linejoin="round"/>
<path d="M343.143 189.97C343.143 189.97 340.643 190.27 341.943 192.77C342.743 194.27 347.543 193.77 348.543 194.17" stroke="#E26E85" stroke-width="1.8" stroke-miterlimit="10" stroke-linecap="round" stroke-linejoin="round"/>
<path d="M313.942 187.67C313.142 189.07 312.142 191.77 312.842 196.57C313.642 202.67 317.143 205.67 319.043 206.87" stroke="#22272E" stroke-width="1.8" stroke-miterlimit="10" stroke-linecap="round" stroke-linejoin="round"/>
<path d="M190.443 96.2705C190.443 96.2705 187.243 112.37 185.443 116.77C183.643 121.17 193.443 128.07 203.243 128.47C213.043 128.87 212.043 123.17 212.043 123.17L214.943 107.17C214.943 107.27 193.943 92.5705 190.443 96.2705Z" fill="#F4C2C9"/>
<path d="M194.843 101.07C193.443 113.27 202.243 119.17 212.043 123.77C212.043 123.47 212.043 123.17 212.043 123.17L213.643 114.67C206.343 112.27 199.943 107.07 194.843 101.07Z" fill="#E26E85"/>
<path d="M148.443 128.57C150.643 122.07 159.043 118.17 165.843 118.77C172.843 119.37 186.243 119.57 199.143 123.57C221.143 130.37 226.443 134.37 227.743 135.57C235.043 142.57 234.343 152.97 230.143 181.67C227.443 200.57 225.143 205.37 225.743 214.67C226.343 223.87 228.043 240.47 229.143 243.87C230.243 247.27 227.443 253.17 225.043 255.27C222.643 257.37 203.243 261.77 185.243 261.37C167.343 260.97 138.943 256.07 134.443 253.07C129.943 250.07 126.743 244.87 127.743 240.37C128.643 235.87 129.743 229.47 132.543 219.97C135.343 210.47 135.543 198.07 139.943 178.17C143.343 163.47 143.843 142.17 148.443 128.57Z" fill="#FB0C0C"/>
<path d="M175.943 201.87C181.543 203.07 194.343 205.47 209.743 205.77C211.243 205.77 212.543 206.97 212.743 208.47C213.043 211.07 214.243 215.27 217.843 219.27C218.343 219.77 218.643 220.47 218.643 221.27C218.743 225.47 218.943 239.67 216.143 241.87C212.943 244.27 178.943 246.47 157.843 240.57C156.443 240.17 155.443 238.97 155.443 237.57C155.543 233.47 155.743 224.87 156.443 219.47C156.643 218.37 157.343 217.47 158.343 216.97C161.643 215.47 169.243 211.47 171.943 203.97C172.743 202.37 174.343 201.47 175.943 201.87Z" stroke="#F8AB5D" stroke-width="1.8" stroke-miterlimit="10" stroke-linecap="round" stroke-linejoin="round"/>
<path d="M184.143 114.37C184.543 113.37 185.843 113.17 186.643 113.87C188.543 115.87 192.643 118.87 200.043 120.27C211.343 122.37 212.443 120.67 212.443 120.67C212.443 120.67 214.243 121.27 214.443 122.77C214.643 124.27 214.143 128.07 213.643 129.97C213.043 131.87 204.643 132.07 197.943 130.67C191.743 129.37 186.243 126.67 182.243 122.57C181.543 121.87 181.343 120.87 181.743 119.97C182.343 118.47 183.343 116.27 184.143 114.37Z" fill="#6DAFA7"/>
<path d="M233.443 77.2705C233.443 79.2705 233.443 84.6705 231.443 89.8705C229.443 95.0705 226.143 109.57 219.643 114.271C213.143 118.971 198.943 118.07 192.743 105.97C186.543 93.9705 188.543 81.1705 191.743 70.9705C194.943 60.7705 208.143 57.0705 219.643 61.2705C231.243 65.4705 233.443 72.7705 233.443 77.2705Z" fill="#F4C2C9"/>
<path d="M191.443 84.2705C191.443 84.2705 192.143 85.0705 193.143 87.1705C194.043 89.2705 195.943 88.0705 196.643 84.2705C197.343 80.4705 198.943 77.7705 200.143 77.9705C201.343 78.2705 205.543 78.7705 208.043 74.2705C210.543 69.6705 211.643 70.3705 211.643 70.3705C211.643 70.3705 213.643 65.5705 218.843 72.4705C224.043 79.3705 227.343 84.7705 233.543 83.6705C239.743 82.5705 245.243 72.4705 240.543 62.7705C235.743 53.0705 221.043 50.7705 210.043 53.6705C199.043 56.5705 193.343 54.1705 186.743 59.7705C180.143 65.3705 181.743 71.2705 181.343 77.8705C180.943 84.4705 177.543 87.9705 182.043 93.8705C186.543 99.7705 185.343 105.27 187.843 108.57C187.843 108.57 190.543 99.8705 190.243 93.5705C189.943 87.2705 191.443 84.2705 191.443 84.2705Z" fill="#22272E"/>
<path d="M221.143 89.7705C220.943 95.0705 216.643 99.2705 211.543 99.2705C206.343 99.2705 202.143 94.9705 202.243 89.5705C202.243 84.0705 206.743 79.5705 212.043 79.6705C217.343 79.7705 221.343 84.3705 221.143 89.7705Z" stroke="#22272E" stroke-width="1.8" stroke-miterlimit="10" stroke-linecap="round" stroke-linejoin="round"/>
<path d="M236.549 95.6801C237.939 90.9078 236.357 86.2505 233.017 85.2777C229.676 84.3048 225.841 87.3849 224.452 92.1571C223.062 96.9293 224.643 101.587 227.984 102.559C231.325 103.532 235.159 100.452 236.549 95.6801Z" stroke="#22272E" stroke-width="1.8" stroke-miterlimit="10" stroke-linecap="round" stroke-linejoin="round"/>
<path d="M224.643 91.8705C224.643 91.8705 224.543 89.8705 221.043 90.9705" stroke="#22272E" stroke-width="1.8" stroke-miterlimit="10" stroke-linecap="round" stroke-linejoin="round"/>
<path d="M203.043 85.4705L191.443 83.3705" stroke="#22272E" stroke-width="1.8" stroke-miterlimit="10" stroke-linecap="round" stroke-linejoin="round"/>
<path d="M192.443 86.0705C192.443 86.0705 191.543 80.7705 187.243 80.6705C182.943 80.6705 180.343 93.7705 191.043 95.5705" fill="#F4C2C9"/>
<path d="M186.543 84.7705C187.443 84.5705 188.543 84.7705 189.243 85.7705C189.543 86.2705 189.643 86.8705 189.643 87.4705C189.643 87.7705 189.543 87.9705 189.543 88.2705C189.543 88.4705 189.443 88.6705 189.443 88.8705C189.343 89.2705 189.343 89.5705 189.343 89.8705C189.343 90.1705 189.343 90.3705 189.543 90.5705C189.843 91.0705 190.643 91.4705 191.443 91.9705C190.543 92.1705 189.543 92.3705 188.543 91.6705C188.043 91.3705 187.743 90.6705 187.643 90.1705C187.543 89.5705 187.643 89.0705 187.743 88.5705C187.843 88.3705 187.843 88.0705 187.943 87.8705C187.943 87.6705 188.043 87.5705 188.043 87.3705C188.143 87.0705 188.143 86.7705 188.043 86.5705C187.943 85.8705 187.343 85.2705 186.543 84.7705Z" fill="#22272E"/>
<path d="M223.243 90.2705C223.343 91.4705 223.543 92.5705 223.943 93.5705C224.143 94.0705 224.343 94.4705 224.643 94.8705C224.843 95.1705 225.443 95.8705 225.543 96.5705C225.943 98.0705 225.443 99.4705 224.743 100.47C224.343 100.97 223.943 101.47 223.343 101.77C222.843 102.07 222.143 102.37 221.543 102.27C222.543 101.57 223.043 100.67 223.443 99.6705C223.843 98.7705 223.943 97.7705 223.743 96.9705C223.643 96.5705 223.443 96.3705 223.043 95.6705C222.743 95.0705 222.543 94.4705 222.443 93.7705C222.443 92.5705 222.643 91.2705 223.243 90.2705Z" fill="#22272E"/>
<path d="M213.243 106.17C213.243 106.17 208.843 106.27 206.643 101.77" stroke="#22272E" stroke-width="1.8" stroke-miterlimit="10" stroke-linecap="round" stroke-linejoin="round"/>
<path d="M209.143 91.6705C208.343 91.4705 207.843 90.6705 208.043 89.8705L208.443 88.3705C208.643 87.5705 209.443 87.0705 210.243 87.2705C211.043 87.4705 211.543 88.2705 211.343 89.0705L210.943 90.5705C210.743 91.3705 209.943 91.8705 209.143 91.6705Z" fill="#22272E"/>
<path d="M225.043 95.7705C224.243 95.5705 223.743 94.7705 223.943 93.9705L224.343 92.4705C224.543 91.6705 225.343 91.1705 226.143 91.3705C226.943 91.5705 227.443 92.3705 227.243 93.1705L226.843 94.6705C226.643 95.4705 225.843 95.9705 225.043 95.7705Z" fill="#22272E"/>
<path d="M213.143 84.7705C212.043 84.9705 211.543 83.4705 209.943 83.5705C207.443 83.6705 206.043 84.1705 205.843 83.0705C205.743 82.2705 207.643 80.7705 210.043 80.6705C213.543 80.6705 215.143 84.4705 213.143 84.7705Z" fill="#22272E"/>
<path d="M225.043 87.7705C225.743 88.3705 226.743 87.2705 227.743 87.9705C229.243 88.8705 229.743 89.6705 230.243 88.9705C230.643 88.3705 230.243 86.5705 228.843 85.6705C226.543 84.0705 223.543 86.6705 225.043 87.7705Z" fill="#22272E"/>
<path d="M99.0427 254.97C99.0427 254.97 97.7427 257.77 97.7427 259.47C97.7427 261.17 99.1427 276.87 98.7427 279.97C98.2427 283.07 97.3427 289.17 96.7427 290.07C96.1427 290.97 92.5427 288.17 92.4427 278.77C92.3427 269.37 89.1427 256.47 91.8427 254.97C94.5427 253.47 98.2427 253.77 99.0427 254.97Z" fill="#F4C2C9"/>
<path d="M33.5426 301.37L57.5426 263.57C58.6426 261.87 60.9426 261.27 62.7426 262.47L119.243 298.37C120.943 299.47 121.543 301.77 120.343 303.57L96.3426 341.37C95.2426 343.07 92.9426 343.67 91.1426 342.47L34.6426 306.57C32.9426 305.47 32.4426 303.17 33.5426 301.37Z" fill="#22272E"/>
<path d="M99.8426 330.27L111.843 311.47C112.343 310.57 113.643 310.57 114.243 311.37L116.143 313.87C116.543 314.37 116.543 314.97 116.243 315.57L105.443 332.57C105.143 333.07 104.543 333.37 103.943 333.17L100.843 332.57C99.8426 332.27 99.3426 331.17 99.8426 330.27Z" fill="#6DAFA7"/>
<path d="M96.3425 253.97C96.3425 253.97 95.7425 271.37 95.6425 275.07C95.5425 278.67 95.7425 286.07 94.8425 289.57C93.9425 293.07 92.4425 301.87 89.7425 302.47C87.0425 303.07 89.9425 291.67 89.9425 289.47C89.9425 287.27 88.7425 281.97 88.7425 281.97C88.7425 281.97 87.7425 287.47 87.0425 289.87C86.3425 292.27 81.7425 299.77 79.9425 299.47C78.0425 299.17 80.3425 293.57 81.7425 290.17C83.0425 287.07 83.5425 280.57 83.5425 280.57C83.5425 280.57 82.0425 284.37 80.8425 286.37C79.6425 288.37 75.5425 294.57 73.8425 294.27C72.0425 293.97 74.9425 287.67 76.6425 284.77C78.3425 281.87 78.4425 279.77 78.4425 279.77C78.4425 279.77 75.7425 282.47 74.0425 283.77C72.3425 285.07 66.3425 287.97 65.8425 286.47C65.4425 284.97 68.0425 283.37 70.5425 281.07C73.0425 278.87 75.7425 274.17 76.3425 273.37C76.9425 272.67 75.2425 265.57 77.9425 260.87C80.6425 256.17 82.2425 254.27 82.9425 251.07C83.5425 247.97 96.0425 251.67 96.3425 253.97Z" fill="#F4C2C9"/>
<path d="M158.843 118.77C158.843 118.77 147.443 117.67 133.743 134.87C120.043 152.07 106.543 166.47 102.743 173.27C98.9426 180.17 90.5425 205.57 86.3425 225.67C82.1425 245.77 81.7425 249.37 81.8425 251.57C81.9425 253.57 92.0426 256.37 98.6426 256.27C99.8426 256.27 100.943 255.57 101.343 254.47C103.943 248.37 113.043 227.57 116.643 219.97C120.843 211.07 125.743 197.87 126.343 196.97C126.943 196.07 154.243 168.27 159.343 160.97C164.443 153.77 169.343 141.87 168.243 131.47C167.043 120.17 161.243 118.67 158.843 118.77Z" fill="#6DAFA7"/>
<path d="M104.143 170.97C104.143 170.97 107.243 166.67 111.143 170.57C115.243 174.67 113.443 183.57 107.743 189.17C103.043 193.77 96.3427 191.87 96.9427 187.57" stroke="#22272E" stroke-width="1.8" stroke-miterlimit="10" stroke-linecap="round" stroke-linejoin="round"/>
<path d="M83.2427 246.77C85.9427 248.07 94.0427 251.67 101.943 250.67" stroke="#22272E" stroke-width="1.8" stroke-miterlimit="10" stroke-linecap="round" stroke-linejoin="round"/>
<path d="M345.043 275.17L361.843 220.17C362.343 218.67 363.743 217.67 365.343 217.67L464.743 220.47C466.443 220.47 467.543 222.07 467.143 223.67L447.643 290.77C447.143 292.47 445.443 293.57 443.743 293.27L347.243 278.37C345.543 278.17 344.543 276.67 345.043 275.17Z" fill="#22272E"/>
<path d="M344.143 277.97L286.343 283.37L385.443 307.77C387.843 308.37 390.343 308.37 392.743 307.77L446.543 293.87L344.143 277.97Z" fill="#63737A"/>
<path d="M385.543 307.77L286.443 283.37C286.443 285.27 287.743 286.87 289.543 287.37L382.943 312.17C386.843 313.17 391.043 313.17 394.943 311.97L443.943 297.57C445.643 297.07 446.743 295.57 446.743 293.77L392.943 307.67C390.343 308.37 387.843 308.37 385.543 307.77Z" fill="#22272E"/>
<path d="M410.342 229.87L403.342 253.67C403.142 254.27 402.542 254.67 401.942 254.67L362.642 251.27C361.742 251.17 361.242 250.37 361.442 249.57L368.042 227.77C368.242 227.17 368.742 226.77 369.342 226.77L409.042 228.17C409.942 228.17 410.542 229.07 410.342 229.87Z" fill="white"/>
<path d="M402.842 234.17L398.442 248.47L367.842 246.27L368.942 243.07L380.242 238.07L386.642 243.07L402.842 234.17Z" fill="#F4C2C9"/>
<path d="M379.942 263.37L377.042 272.37C376.842 272.97 376.242 273.37 375.542 273.27L356.642 270.77C355.842 270.67 355.242 269.87 355.542 269.07L358.042 260.67C358.242 260.07 358.842 259.67 359.442 259.67L378.742 261.67C379.642 261.67 380.242 262.47 379.942 263.37Z" fill="#FB0C0C"/>
<path d="M409.542 266.37L406.342 276.27C406.142 276.87 405.542 277.27 404.842 277.17L386.842 274.77C386.042 274.67 385.442 273.87 385.742 272.97L388.742 263.67C388.942 263.07 389.542 262.67 390.142 262.77L408.342 264.57C409.242 264.67 409.842 265.47 409.542 266.37Z" fill="#6DAFA7"/>
<path d="M443.543 269.77L440.143 280.77C439.943 281.37 439.343 281.77 438.643 281.67L416.943 278.77C416.143 278.67 415.543 277.87 415.843 276.97L419.143 266.67C419.343 266.07 419.943 265.67 420.543 265.77L442.243 267.97C443.243 268.07 443.843 268.97 443.543 269.77Z" fill="#F4C2C9"/>
<path d="M431.842 234.67C431.142 237.67 428.042 239.97 425.042 239.77C422.142 239.57 420.642 237.07 421.442 234.27C422.242 231.57 425.042 229.57 427.742 229.57C430.542 229.57 432.442 231.87 431.842 234.67Z" fill="#FB0C0C"/>
<path d="M438.943 231.37L453.543 231.87" stroke="#63737A" stroke-width="1.8" stroke-miterlimit="10" stroke-linecap="round" stroke-linejoin="round"/>
<path d="M416.143 250.37L447.443 252.57" stroke="#63737A" stroke-width="1.8" stroke-miterlimit="10" stroke-linecap="round" stroke-linejoin="round"/>
<path d="M437.243 237.27L451.843 237.87" stroke="#63737A" stroke-width="1.8" stroke-miterlimit="10" stroke-linecap="round" stroke-linejoin="round"/>
<path d="M517.343 87.8704L441.343 93.7705C439.443 93.8704 437.843 92.3704 437.943 90.3704L441.143 46.4704C441.343 43.8704 443.343 41.6704 445.943 41.3704L523.143 30.8704C525.143 30.5704 526.843 32.2705 526.743 34.2705L522.443 82.8704C522.243 85.4704 520.043 87.5704 517.343 87.8704Z" fill="#6DAFA7"/>
<path d="M514.843 86.2705L438.843 92.1705C436.943 92.2705 435.343 90.7705 435.443 88.7705L438.643 44.8705C438.843 42.2705 440.843 40.0705 443.443 39.7705L520.643 29.2705C522.643 28.9705 524.343 30.6705 524.243 32.6705L519.943 81.2705C519.743 83.9705 517.543 86.0705 514.843 86.2705Z" fill="#B8D8C7"/>
<path d="M464.243 56.8705C464.043 59.8705 461.443 62.5705 458.543 62.8705C455.643 63.1705 453.543 60.9705 453.743 58.0705C453.943 55.0705 456.443 52.3705 459.343 52.0705C462.343 51.6705 464.443 53.8705 464.243 56.8705Z" fill="#22272E"/>
<path d="M462.743 75.9705L452.343 76.9705C450.043 77.1705 448.343 75.3705 448.543 73.0705C448.943 67.7705 453.443 62.9705 458.643 62.3705C463.843 61.7705 467.843 65.7705 467.343 71.2705C467.143 73.5705 465.143 75.7705 462.743 75.9705Z" fill="#22272E"/>
<path d="M476.542 51.4705L508.943 47.6705" stroke="#63737A" stroke-width="1.8" stroke-miterlimit="10" stroke-linecap="round" stroke-linejoin="round"/>
<path d="M475.743 60.3705L508.143 56.8705" stroke="#63737A" stroke-width="1.8" stroke-miterlimit="10" stroke-linecap="round" stroke-linejoin="round"/>
<path d="M475.042 69.2705L494.542 67.3705" stroke="#63737A" stroke-width="1.8" stroke-miterlimit="10" stroke-linecap="round" stroke-linejoin="round"/>
<path d="M431.142 9.87044C427.242 5.97044 421.743 3.67045 414.943 2.87045C409.943 2.27045 405.542 2.87044 401.642 4.67044C396.842 6.77044 393.242 10.4704 390.542 15.8704L386.042 17.7704L388.642 20.4704L400.342 22.5705C401.042 20.1705 402.443 17.9704 404.443 15.8704C406.443 13.8704 409.142 13.0705 412.542 13.5705C416.042 14.0705 418.242 15.3704 419.142 17.4704C420.042 19.5704 420.143 21.8704 419.443 24.1704C418.843 26.1704 417.742 27.9704 416.042 29.4704C415.042 30.3704 413.942 31.0704 412.642 31.6704L408.642 33.6704C404.742 35.5704 402.142 37.3704 400.842 39.1704C399.942 40.4704 398.842 42.5705 397.742 45.5705L393.742 46.8704L396.342 49.5705L408.342 52.8704C409.042 50.2704 409.842 48.4704 410.542 47.3704C411.642 45.5704 413.342 44.1704 415.542 43.1704L419.642 41.2705C423.842 39.3704 426.842 37.5705 428.642 36.0705C431.642 33.5705 433.642 30.2704 434.742 25.9704C436.442 19.3704 435.242 13.9704 431.142 9.87044Z" fill="#F8AB5D"/>
<path d="M400.543 56.7704L400.143 56.6704C396.643 55.6704 392.943 57.8704 391.943 61.6704C390.843 65.4704 392.743 69.4704 396.243 70.6704L396.643 70.8704C400.243 72.0704 404.043 69.8704 405.143 65.8704C406.243 61.8704 404.143 57.7704 400.543 56.7704Z" fill="#F8AB5D"/>
<path d="M399.142 1.97046C403.042 0.270457 407.443 -0.329546 412.443 0.170454C419.243 0.970454 424.642 3.27045 428.642 7.17045C432.742 11.1705 433.942 16.6705 432.142 23.4705C431.042 27.6705 429.042 31.0705 426.042 33.5705C424.342 35.0705 421.342 36.7705 417.042 38.7705L412.943 40.6705C410.743 41.6705 409.043 43.0705 407.943 44.8705C407.243 45.9705 406.542 47.8705 405.742 50.3705L393.742 47.0705C395.442 41.8705 396.842 38.4705 398.242 36.6705C399.542 34.8705 402.142 33.0705 406.042 31.1705L410.042 29.1705C411.342 28.5705 412.543 27.7705 413.443 26.9705C415.143 25.4705 416.342 23.7705 416.842 21.6705C417.442 19.2705 417.342 17.0705 416.542 14.9705C415.742 12.8705 413.443 11.5705 409.943 11.0705C406.543 10.5705 403.842 11.3705 401.842 13.3705C399.842 15.3705 398.442 17.5705 397.742 20.0705L386.042 17.9705C388.842 9.87046 393.042 4.67046 399.142 1.97046ZM397.842 55.1705L398.242 55.2705C401.842 56.3705 403.942 60.3705 402.842 64.2705C401.742 68.2705 397.842 70.4705 394.342 69.2705L393.943 69.0705C390.443 67.8705 388.542 63.8705 389.642 60.0705C390.742 56.3705 394.342 54.1705 397.842 55.1705Z" fill="#FB0C0C"/>
<path d="M127.042 63.6705H165.442L169.342 66.1705C170.642 66.9705 172.242 66.0705 172.242 64.5705V37.4705C172.242 34.6705 170.042 32.4705 167.242 32.4705H127.042C124.242 32.4705 122.042 34.6705 122.042 37.4705V58.6705C122.042 61.4705 124.242 63.6705 127.042 63.6705Z" fill="#F4C2C9"/>
<path d="M159.842 41.3705H134.242" stroke="#22272E" stroke-width="1.8" stroke-miterlimit="10" stroke-linecap="round" stroke-linejoin="round"/>
<path d="M159.842 48.3705H134.242" stroke="#22272E" stroke-width="1.8" stroke-miterlimit="10" stroke-linecap="round" stroke-linejoin="round"/>
<path d="M159.842 55.3705H145.142" stroke="#22272E" stroke-width="1.8" stroke-miterlimit="10" stroke-linecap="round" stroke-linejoin="round"/>
</g>
</svg>
